<?xml version="1.0" standalone="no"?>
<!DOCTYPE svg PUBLIC "-//W3C//DTD SVG 20010904//EN"
 "http://www.w3.org/TR/2001/REC-SVG-20010904/DTD/svg10.dtd">
<svg version="1.0" xmlns="http://www.w3.org/2000/svg"
 width="192.000000pt" height="192.000000pt" viewBox="0 0 192.000000 192.000000"
 preserveAspectRatio="xMidYMid meet">
<metadata>
Created by potrace 1.14, written by Peter Selinger 2001-2017
</metadata>
<g transform="translate(0.000000,192.000000) scale(0.100000,-0.100000)"
fill="#000000" stroke="none">
<path d="M118 1803 l-48 -4 0 -335 0 -334 45 0 45 0 0 -340 0 -340 40 0 40 0
0 340 0 340 -40 0 -40 0 0 234 c0 128 -3 261 -6 294 l-7 61 129 3 129 3 -3 34
c-1 19 -4 36 -6 38 -6 6 -229 11 -278 6z"/>
<path d="M1564 1803 c-37 -4 -42 -7 -48 -35 -3 -16 -3 -34 0 -39 3 -5 61 -9
130 -9 l124 0 0 -250 0 -250 -45 0 -45 0 0 -425 0 -425 40 0 40 0 0 409 c0
225 3 416 6 425 4 11 19 16 45 16 l39 0 0 289 0 288 -67 6 c-69 7 -143 7 -219
0z"/>
<path d="M410 1680 l0 -40 40 0 40 0 0 40 0 40 -40 0 -40 0 0 -40z"/>
<path d="M1430 1681 c0 -40 0 -40 -42 -43 -43 -3 -43 -3 -46 -45 -3 -43 -3
-43 -43 -43 -39 0 -39 0 -39 -39 0 -40 0 -40 -42 -43 -43 -3 -43 -3 -46 -45
l-3 -43 -210 0 -209 0 0 -40 0 -40 210 0 210 0 0 40 0 40 45 0 45 0 0 45 0 45
40 0 40 0 0 40 0 40 45 0 45 0 0 45 0 45 40 0 40 0 0 40 0 40 -40 0 c-40 0
-40 0 -40 -39z"/>
<path d="M240 1425 l0 -215 40 0 40 0 0 -40 0 -40 45 0 45 0 0 -45 0 -45 85 0
86 0 -3 128 -3 127 -42 3 c-43 3 -43 3 -43 43 0 39 0 39 -40 39 l-39 0 -3 88
-3 87 -37 3 c-37 3 -38 4 -38 43 l0 39 -45 0 -45 0 0 -215z"/>
<path d="M1598 1598 c-3 -43 -3 -43 -45 -46 -43 -3 -43 -3 -43 -43 0 -39 0
-39 -40 -39 l-40 0 0 -45 0 -45 -45 0 -45 0 0 -125 0 -125 85 0 85 0 0 39 c0
40 0 40 43 43 42 3 42 3 45 46 3 42 3 42 43 42 l39 0 0 170 0 170 -39 0 c-40
0 -40 0 -43 -42z"/>
<path d="M492 1593 c3 -36 5 -38 41 -41 l37 -3 0 40 0 41 -41 0 -40 0 3 -37z"/>
<path d="M580 1510 l0 -40 40 0 40 0 0 40 0 40 -40 0 -40 0 0 -40z"/>
<path d="M662 1423 c3 -36 5 -38 41 -41 l37 -3 0 40 0 41 -41 0 -40 0 3 -37z"/>
<path d="M492 748 l3 -43 123 -3 122 -3 0 -39 0 -40 51 0 50 0 -3 43 c-3 42
-3 42 -45 45 -43 3 -43 3 -43 43 l0 39 -131 0 -130 0 3 -42z"/>
<path d="M1250 750 l0 -40 -40 0 -40 0 0 -45 0 -45 45 0 45 0 0 40 0 40 125 0
125 0 0 45 0 45 -130 0 -130 0 0 -40z"/>
<path d="M327 443 c-4 -3 -7 -21 -7 -40 0 -33 1 -33 45 -33 l45 0 0 40 c0 40
0 40 -38 40 -21 0 -42 -3 -45 -7z"/>
<path d="M920 410 c0 -40 0 -40 39 -40 40 0 40 0 43 -42 l3 -43 83 -3 82 -3 0
46 0 45 45 0 45 0 0 40 0 40 -170 0 -170 0 0 -40z"/>
<path d="M410 280 l0 -80 80 0 80 0 0 40 0 40 -40 0 -40 0 0 40 0 40 -40 0
-40 0 0 -80z"/>
<path d="M1600 322 l0 -38 40 4 c38 4 40 6 40 38 0 33 -1 34 -40 34 -40 0 -40
0 -40 -38z"/>
<path d="M1510 242 l0 -39 -197 -6 c-108 -4 -317 -7 -465 -7 l-268 0 0 -34 0
-33 61 -7 c34 -3 244 -6 465 -6 l404 0 0 45 0 45 40 0 40 0 0 40 0 40 -40 0
c-40 0 -40 0 -40 -38z"/>
</g>
</svg>
